<svg width="20" height="20" viewBox="0 0 20 20" fill="none" xmlns="http://www.w3.org/2000/svg">
<path fill-rule="evenodd" clip-rule="evenodd" d="M2.52568 7.82485C2.5 8.43256 2.5 9.14825 2.5 9.99996C2.5 12.6666 2.5 13.9999 3.28817 14.8601C3.34713 14.9244 3.40888 14.9862 3.47323 15.0451C4.33336 15.8333 5.66669 15.8333 8.33333 15.8333H11.6667C14.3333 15.8333 15.6666 15.8333 16.5268 15.0451C16.5911 14.9862 16.6529 14.9244 16.7118 14.8601C17.5 13.9999 17.5 12.6666 17.5 9.99996C17.5 9.14825 17.5 8.43256 17.4743 7.82485L10.9713 11.4376C10.3672 11.7732 9.63276 11.7732 9.02871 11.4376L2.52568 7.82485ZM2.89131 5.74628C2.92319 5.75988 2.95468 5.77526 2.98564 5.79247L10 9.68933L17.0144 5.79247C17.0453 5.77527 17.0768 5.75988 17.1087 5.74628C17.0058 5.51846 16.8759 5.31891 16.7118 5.13986C16.6529 5.07551 16.5911 5.01376 16.5268 4.95479C15.6666 4.16663 14.3333 4.16663 11.6667 4.16663H8.33333C5.66669 4.16663 4.33336 4.16663 3.47323 4.95479C3.40888 5.01376 3.34713 5.07551 3.28817 5.13986C3.1241 5.31891 2.99418 5.51846 2.89131 5.74628Z" fill="#2462EA"/>
</svg>
