<svg width="20" height="20" viewBox="0 0 20 20" fill="none" xmlns="http://www.w3.org/2000/svg">
<path d="M2.96532 11.1089C2.37114 10.1186 2.37114 8.88143 2.96532 7.89114V7.89114C3.14663 7.58895 3.44701 7.37726 3.79258 7.30815L5.20344 7.02598C5.28749 7.00917 5.36326 6.96409 5.41814 6.89824L6.67085 5.39498C7.8534 3.97592 8.44468 3.26638 8.97234 3.45742C9.5 3.64846 9.5 4.57207 9.5 6.41928L9.5 12.5807C9.5 14.4279 9.5 15.3515 8.97234 15.5426C8.44468 15.7336 7.8534 15.0241 6.67085 13.605L5.41814 12.1018C5.36326 12.0359 5.28749 11.9908 5.20344 11.974L3.79258 11.6918C3.44701 11.6227 3.14663 11.4111 2.96532 11.1089V11.1089Z" fill="#2462EA"/>
<path d="M11.6129 6.55372C12.3903 7.3311 12.829 8.38421 12.8333 9.48358C12.8376 10.583 12.4073 11.6395 11.6361 12.423" stroke="#2462EA" stroke-width="2" stroke-linecap="round"/>
<path d="M15.0473 4.78595C16.2911 6.02976 16.993 7.71474 16.9999 9.47374C17.0068 11.2327 16.3183 12.9232 15.0843 14.1768" stroke="#2462EA" stroke-width="2" stroke-linecap="round"/>
</svg>
